# xmcd
#
# Track frame offsets: 
#        150
#        14430
#        29040
#        44323
#        63888
#        78338
#        94515
#        105405
#        116950
#        132343
#
# Disc length: 1918 seconds
#
# Revision: 6
# Processed by: cddbd v1.5.2PL0 Copyright (c) Steve Scherf et al.
# Submitted via: ExactAudioCopy v0.99pb5
#
DISCID=7e077c0a
DTITLE=Eddie Rabbitt - [1991 Warner Bros. 9 26467-2] All Time Greatest
DTITLE=Hits
DYEAR=1991
DGENRE=Country
TTITLE0=I Love A Rainy Night
TTITLE1=Drivin' My Life Away
TTITLE2=Gone Too Far
TTITLE3=Suspicions
TTITLE4=I Can't Help Myself (Here Comes That Feelin')
TTITLE5=Rocky Mountain Music
TTITLE6=Two Dollars In The Jukebox
TTITLE7=Do You Right Tonight
TTITLE8=Pour Me Another Tequila
TTITLE9=Hearts On Fire
EXTD=
EXTT0=
EXTT1=
EXTT2=
EXTT3=
EXTT4=
EXTT5=
EXTT6=
EXTT7=
EXTT8=
EXTT9=
PLAYORDER=
